#!OML:ASF H:\ManfredObstacles\Project 1\Capture day 1\Session 1\Male.ASF
:FULLY-SPECIFIED
:DEGREES
450
root -3.85523 15.9104 8.9621 -168.375 -6.92703 -178.456
lowerback -7.63972 -2.84159 -0.830261
upperback 1.96631 -3.8179 1.48928
thorax 6.50104 -1.94756 1.51671
lowerneck 0.744511 -3.20996 -5.89699
upperneck 2.12652 -4.31981 10.3091
head 0.952454 -2.07123 4.42809
rclavicle -4.95719e-015 -9.59136e-015
rhumerus -35.5443 -21.5522 -77.0943
rradius 30.117
rwrist 30.9135
rhand 3.90494 -5.15743
rfingers 7.12502
rthumb 29.3249 -32.8648
lclavicle -4.95719e-015 -9.59136e-015
lhumerus -25.2171 12.7814 86.8426
lradius 17.3673
lwrist -31.7274
lhand -10.1945 9.14731
lfingers 7.12502
lthumb 15.7963 38.5228
rfemur -42.3519 -2.72412 21.2772
rtibia 38.7012
rfoot -14.9849 6.91978
rtoes 15.867
lfemur 2.17109 -7.3362 -15.8414
ltibia 19.2675
lfoot -9.31928 -15.8384
ltoes 3.59021
451
root -3.8228 15.9301 8.8606 -168.085 -6.59965 -178.561
lowerback -7.53417 -2.82103 -0.89201
upperback 1.99923 -3.78316 1.46653
thorax 6.4767 -1.93265 1.53647
lowerneck 0.648756 -3.15307 -5.86883
upperneck 1.64956 -4.21756 10.2737
head 0.803447 -2.02943 4.41114
rclavicle -3.84648e-014 7.45443e-015
rhumerus -35.219 -20.9502 -77.5092
rradius 30.1486
rwrist 30.6747
rhand 3.7002 -5.09961
rfingers 7.12502
rthumb 29.1294 -32.841
lclavicle -3.84648e-014 7.45443e-015
lhumerus -24.7991 11.6368 87.3907
lradius 17.7528
lwrist -30.5384
lhand -10.188 9.25568
lfingers 7.12502
lthumb 15.8026 38.6307
rfemur -42.314 -2.58374 21.359
rtibia 38.7269
rfoot -15.2781 7.18799
rtoes 15.8579
lfemur 2.16949 -7.1369 -15.8138
ltibia 19.3119
lfoot -8.3474 -15.618
ltoes 2.33307
452
root -3.79014 15.9509 8.75153 -167.824 -6.20007 -178.707
lowerback -7.41312 -2.78264 -1
upperback 1.98091 -3.71856 1.43757
thorax 6.39066 -1.90401 1.58162
lowerneck 0.680112 -3.09817 -5.85222
upperneck 1.15714 -4.1202 10.1952
head 0.626571 -1.99342 4.38358
rclavicle -2.10215e-014 5.96354e-016
rhumerus -35.2361 -20.5419 -77.6916
rradius 30.2743
rwrist 30.6238
rhand 3.41508 -4.92341
rfingers 7.12502
rthumb 28.8571 -32.7116
lclavicle -2.10215e-014 5.96354e-016
lhumerus -24.4893 10.7473 87.8364
lradius 18.0755
lwrist -29.6034
lhand -10.1517 9.37055
lfingers 7.12502
lthumb 15.8375 38.7428
rfemur -42.2099 -2.44258 21.4164
rtibia 38.7261
rfoot -15.4968 7.53558
rtoes 16.0404
lfemur 2.18922 -6.87177 -15.8536
ltibia 19.4656
lfoot -7.52148 -15.4212
ltoes 0.523285
453
root -3.75575 15.973 8.63787 -167.503 -5.88194 -178.635
lowerback -7.41866 -2.74184 -0.858421
upperback 1.92367 -3.67876 1.45899
thorax 6.32386 -1.87907 1.53138
lowerneck 0.783335 -3.04567 -5.9069
upperneck 0.689104 -4.02863 10.1794
head 0.449139 -1.9602 4.39472
rclavicle -4.00054e-015 -1.21756e-014
rhumerus -35.41 -20.3474 -77.7246
rradius 30.3539
rwrist 30.7935
rhand 3.43705 -5.02394
rfingers 7.12502
rthumb 28.8781 -32.8086
lclavicle -4.00054e-015 -1.21756e-014
lhumerus -24.2953 9.98422 88.1588
lradius 18.4309
lwrist -28.9965
lhand -10.131 9.34486
lfingers 7.12502
lthumb 15.8575 38.7155
rfemur -42.1418 -2.31616 21.7461
rtibia 38.7044
rfoot -15.7622 7.80844
rtoes 16.4087
lfemur 2.10599 -6.79182 -15.6568
ltibia 19.6848
lfoot -6.57529 -15.0533
ltoes -0.309557
454
root -3.71622 15.9944 8.52147 -167.208 -5.57778 -178.411
lowerback -7.43977 -2.69356 -0.606122
upperback 1.89812 -3.64487 1.52765
thorax 6.29601 -1.85495 1.4661
lowerneck 0.583517 -2.9869 -5.87377
upperneck 0.458818 -3.93226 10.0862
head 0.398712 -1.91275 4.35355
rclavicle -3.77691e-015 -5.36719e-015
rhumerus -35.5093 -20.4445 -77.6413
rradius 30.1868
rwrist 31.0564
rhand 3.77554 -5.40087
rfingers 7.12502
rthumb 29.2014 -33.1298
lclavicle -3.77691e-015 -5.36719e-015
lhumerus -24.0743 9.42421 88.3674
lradius 18.7278
lwrist -28.6607
lhand -10.1178 9.24368
lfingers 7.12502
lthumb 15.8702 38.6133
rfemur -42.0333 -1.9753 22.1794
rtibia 38.6839
rfoot -16.0831 7.89409
rtoes 17.1338
lfemur 2.00148 -6.71664 -15.2936
ltibia 19.9328
lfoot -5.51975 -14.5738
ltoes -1.17638
455
root -3.67325 16.0155 8.38938 -167.059 -5.37633 -178.509
lowerback -7.40573 -2.74343 -0.732513
upperback 1.89082 -3.69949 1.54027
thorax 6.27998 -1.88679 1.54449
lowerneck 0.479177 -2.91626 -5.83168
upperneck 0.219045 -3.8222 9.97104
head 0.32635 -1.86075 4.30478
rclavicle -2.1593e-014 1.21259e-014
rhumerus -35.7443 -20.6411 -77.4282
rradius 29.9154
rwrist 31.2165
rhand 3.95494 -5.78665
rfingers 7.12502
rthumb 29.3727 -33.4857
lclavicle -2.1593e-014 1.21259e-014
lhumerus -23.9559 8.98276 88.5349
lradius 18.9607
lwrist -28.3882
lhand -10.1252 9.33546
lfingers 7.12502
lthumb 15.863 38.7057
rfemur -41.67 -1.80579 22.271
rtibia 38.6804
rfoot -16.5526 8.01711
rtoes 17.8151
lfemur 2.0691 -6.7067 -15.2698
ltibia 20.2765
lfoot -4.45237 -14.1669
ltoes -2.37767
456
root -3.63006 16.0348 8.24625 -166.99 -5.1996 -178.714
lowerback -7.38946 -2.79996 -0.910247
upperback 1.90392 -3.75416 1.50181
thorax 6.29574 -1.91915 1.59696
lowerneck 0.480653 -2.84296 -5.87911
upperneck -0.115063 -3.70581 9.92698
head 0.207968 -1.80875 4.30233
rclavicle 9.29318e-015 -7.45443e-015
rhumerus -36.1274 -20.9178 -77.1454
rradius 29.7023
rwrist 31.3132
rhand 3.85417 -6.06454
rfingers 7.12502
rthumb 29.2765 -33.7804
lclavicle 9.29318e-015 -7.45443e-015
lhumerus -23.846 8.73718 88.6381
lradius 19.1799
lwrist -28.2381
lhand -10.0953 9.49548
lfingers 7.12502
lthumb 15.8919 38.8634
rfemur -41.1649 -1.82042 22.2949
rtibia 38.6818
rfoot -17.1299 8.27158
rtoes 17.8221
lfemur 2.18848 -6.7238 -15.3656
ltibia 20.7475
lfoot -3.22317 -13.7305
ltoes -2.61166
457
root -3.58545 16.0553 8.10562 -166.902 -4.87925 -178.883
lowerback -7.33361 -2.81726 -1.0336
upperback 1.91217 -3.76108 1.44952
thorax 6.27737 -1.92566 1.61296
lowerneck 0.314741 -2.73224 -5.83549
upperneck -0.353399 -3.54167 9.73169
head 0.141138 -1.72842 4.22421
rclavicle 5.17089e-014 -7.8023e-015
rhumerus -36.5504 -21.2891 -76.8245
rradius 29.4961
rwrist 31.5146
rhand 3.68831 -6.17456
rfingers 7.12502
rthumb 29.1181 -33.9179
lclavicle 5.17089e-014 -7.8023e-015
lhumerus -23.6619 8.80023 88.5999
lradius 19.3092
lwrist -28.0247
lhand -9.96776 9.41408
lfingers 7.12502
lthumb 16.0147 38.7722
rfemur -40.7042 -1.73445 22.3471
rtibia 38.6815
rfoot -17.6069 8.5756
rtoes 17.7376
lfemur 2.18088 -6.64011 -15.4395
ltibia 21.3313
lfoot -1.8176 -13.3234
ltoes -1.78103
458
root -3.54116 16.0773 7.95731 -166.772 -4.60872 -178.855
lowerback -7.38295 -2.85208 -0.903614
upperback 1.85501 -3.81706 1.4241
thorax 6.23679 -1.9469 1.5057
lowerneck 0.347493 -2.56352 -5.80509
upperneck -0.64481 -3.30136 9.58032
head 0.016897 -1.61418 4.16919
rclavicle -1.09667e-013 2.15184e-014
rhumerus -37.0889 -21.7777 -76.4078
rradius 29.0913
rwrist 31.9928
rhand 3.5525 -6.10884
rfingers 7.12502
rthumb 28.9884 -33.8746
lclavicle -1.09667e-013 2.15184e-014
lhumerus -23.6773 8.69808 88.4841
lradius 19.4083
lwrist -27.7028
lhand -10.0578 9.31233
lfingers 7.12502
lthumb 15.9279 38.6774
rfemur -40.25 -1.77413 22.6667
rtibia 38.6382
rfoot -17.9991 9.00381
rtoes 18.3452
lfemur 2.0246 -6.70648 -15.3107
ltibia 22.1343
lfoot -0.213737 -12.8502
ltoes 0.43929
459
root -3.49871 16.0984 7.79998 -166.678 -4.35307 -178.785
lowerback -7.47562 -2.86107 -0.657616
upperback 1.76815 -3.84812 1.37851
thorax 6.17902 -1.95098 1.31469
lowerneck 0.65082 -2.43572 -5.85977
upperneck -1.08863 -3.1157 9.52401
head -0.19628 -1.53424 4.17059
rclavicle 3.81915e-014 -1.18277e-014
rhumerus -37.7426 -22.4432 -75.8411
rradius 28.5589
rwrist 32.6671
rhand 3.37338 -5.99059
rfingers 7.12502
rthumb 28.8173 -33.7856
lclavicle 3.81915e-014 -1.18277e-014
lhumerus -23.8896 8.45029 88.3815
lradius 19.6498
lwrist -27.4202
lhand -10.1237 9.40254
lfingers 7.12502
lthumb 15.8645 38.7726
rfemur -39.6943 -1.90073 23.0513
rtibia 38.5388
rfoot -18.4432 9.50351
rtoes 19.2581
lfemur 1.75336 -6.93866 -15.1972
ltibia 23.2669
lfoot 1.50032 -11.9929
ltoes 2.74697
460
root -3.45515 16.1199 7.63528 -166.621 -4.09539 -178.854
lowerback -7.60929 -2.88065 -0.572512
upperback 1.72854 -3.87839 1.33173
thorax 6.2052 -1.96089 1.20888
lowerneck 0.960973 -2.32028 -6.04695
upperneck -1.67872 -2.93955 9.53354
head -0.454205 -1.45938 4.22414
rclavicle 1.00635e-014 -1.07344e-014
rhumerus -38.3208 -22.9837 -75.2668
rradius 28.0787
rwrist 33.0825
rhand 3.29469 -6.02887
rfingers 7.12502
rthumb 28.7421 -33.8367
lclavicle 1.00635e-014 -1.07344e-014
lhumerus -24.0467 8.42637 88.304
lradius 19.8871
lwrist -27.2228
lhand -10.2149 9.36763
lfingers 7.12502
lthumb 15.7767 38.7447
rfemur -39.0384 -1.95747 23.231
rtibia 38.4133
rfoot -18.9228 9.96291
rtoes 19.7052
lfemur 1.28628 -7.1761 -15.2468
ltibia 24.793
lfoot 3.0966 -10.9931
ltoes 3.47371
